# Wavefront OBJ file automatically generated by Tiled2Unity

# Vertices (Count = 176)
v 0 -16 0
v -16 -16 0
v -16 0 0
v 0 0 0
v -32 -16 0
v -32 0 0
v -48 -16 0
v -48 0 0
v -64 -16 0
v -64 0 0
v -80 -16 0
v -80 0 0
v -96 -16 0
v -96 0 0
v -112 -16 0
v -112 0 0
v -128 -16 0
v -128 0 0
v -144 -16 0
v -144 0 0
v -160 -16 0
v -160 0 0
v -176 -16 0
v -176 0 0
v -192 -16 0
v -192 0 0
v -208 -16 0
v -208 0 0
v -224 -16 0
v -224 0 0
v -240 -16 0
v -240 0 0
v 0 -32 0
v -16 -32 0
v -32 -32 0
v -48 -32 0
v -64 -32 0
v -80 -32 0
v -96 -32 0
v -112 -32 0
v -128 -32 0
v -144 -32 0
v -160 -32 0
v -176 -32 0
v -192 -32 0
v -208 -32 0
v -224 -32 0
v -240 -32 0
v 0 -48 0
v -16 -48 0
v -32 -48 0
v -48 -48 0
v -64 -48 0
v -80 -48 0
v -96 -48 0
v -112 -48 0
v -128 -48 0
v -144 -48 0
v -160 -48 0
v -176 -48 0
v -192 -48 0
v -208 -48 0
v -224 -48 0
v -240 -48 0
v 0 -64 0
v -16 -64 0
v -32 -64 0
v -48 -64 0
v -64 -64 0
v -80 -64 0
v -96 -64 0
v -112 -64 0
v -128 -64 0
v -144 -64 0
v -160 -64 0
v -176 -64 0
v -192 -64 0
v -208 -64 0
v -224 -64 0
v -240 -64 0
v 0 -80 0
v -16 -80 0
v -32 -80 0
v -48 -80 0
v -64 -80 0
v -80 -80 0
v -96 -80 0
v -112 -80 0
v -128 -80 0
v -144 -80 0
v -160 -80 0
v -176 -80 0
v -192 -80 0
v -208 -80 0
v -224 -80 0
v -240 -80 0
v 0 -96 0
v -16 -96 0
v -32 -96 0
v -48 -96 0
v -64 -96 0
v -80 -96 0
v -96 -96 0
v -112 -96 0
v -128 -96 0
v -144 -96 0
v -160 -96 0
v -176 -96 0
v -192 -96 0
v -208 -96 0
v -224 -96 0
v -240 -96 0
v 0 -112 0
v -16 -112 0
v -32 -112 0
v -48 -112 0
v -64 -112 0
v -80 -112 0
v -96 -112 0
v -112 -112 0
v -128 -112 0
v -144 -112 0
v -160 -112 0
v -176 -112 0
v -192 -112 0
v -208 -112 0
v -224 -112 0
v -240 -112 0
v 0 -128 0
v -16 -128 0
v -32 -128 0
v -48 -128 0
v -64 -128 0
v -80 -128 0
v -96 -128 0
v -112 -128 0
v -128 -128 0
v -144 -128 0
v -160 -128 0
v -176 -128 0
v -192 -128 0
v -208 -128 0
v -224 -128 0
v -240 -128 0
v 0 -144 0
v -16 -144 0
v -32 -144 0
v -48 -144 0
v -64 -144 0
v -80 -144 0
v -96 -144 0
v -112 -144 0
v -128 -144 0
v -144 -144 0
v -160 -144 0
v -176 -144 0
v -192 -144 0
v -208 -144 0
v -224 -144 0
v -240 -144 0
v 0 -160 0
v -16 -160 0
v -32 -160 0
v -48 -160 0
v -64 -160 0
v -80 -160 0
v -96 -160 0
v -112 -160 0
v -128 -160 0
v -144 -160 0
v -160 -160 0
v -176 -160 0
v -192 -160 0
v -208 -160 0
v -224 -160 0
v -240 -160 0

# Texture Coorindates (Count = 188)
vt 0.09067325 0.6305569
vt 0.1114265 0.6305569
vt 0.1114265 0.6650953
vt 0.09067325 0.6650953
vt 0.4030092 0.8892525
vt 0.4237624 0.8892525
vt 0.4237624 0.923791
vt 0.4030092 0.923791
vt 0.112983 0.6305569
vt 0.1337362 0.6305569
vt 0.1337362 0.6650953
vt 0.112983 0.6650953
vt 0.1352927 0.6305569
vt 0.1560459 0.6305569
vt 0.1560459 0.6650953
vt 0.1352927 0.6650953
vt 0.1576024 0.6305569
vt 0.1783556 0.6305569
vt 0.1783556 0.6650953
vt 0.1576024 0.6650953
vt 0.001434406 0.7414264
vt 0.02218764 0.7414264
vt 0.02218764 0.7759649
vt 0.001434406 0.7759649
vt 0.02374412 0.9631655
vt 0.04449735 0.9631655
vt 0.04449735 0.997704
vt 0.02374412 0.997704
vt 0.001434406 0.8153394
vt 0.02218764 0.8153394
vt 0.02218764 0.849878
vt 0.001434406 0.849878
vt 0.04605383 0.8153394
vt 0.06680706 0.8153394
vt 0.06680706 0.849878
vt 0.04605383 0.849878
vt 0.06836354 0.8153394
vt 0.08911677 0.8153394
vt 0.08911677 0.849878
vt 0.06836354 0.849878
vt 0.04605383 0.852296
vt 0.06680706 0.852296
vt 0.06680706 0.8868344
vt 0.04605383 0.8868344
vt 0.001434406 0.778383
vt 0.02218764 0.778383
vt 0.02218764 0.8129214
vt 0.001434406 0.8129214
vt 0.06836354 0.778383
vt 0.08911677 0.778383
vt 0.08911677 0.8129214
vt 0.06836354 0.8129214
vt 0.02374412 0.6305569
vt 0.04449735 0.6305569
vt 0.04449735 0.6650953
vt 0.02374412 0.6650953
vt 0.2022218 0.9631655
vt 0.222975 0.9631655
vt 0.222975 0.997704
vt 0.2022218 0.997704
vt 0.001434406 0.6305569
vt 0.02218764 0.6305569
vt 0.02218764 0.6650953
vt 0.001434406 0.6650953
vt 0.04605383 0.6305569
vt 0.06680706 0.6305569
vt 0.06680706 0.6650953
vt 0.04605383 0.6650953
vt 0.06836354 0.6305569
vt 0.08911677 0.6305569
vt 0.08911677 0.6650953
vt 0.06836354 0.6650953
vt 0.04605383 0.8892525
vt 0.06680706 0.8892525
vt 0.06680706 0.923791
vt 0.04605383 0.923791
vt 0.06836354 0.8892525
vt 0.08911677 0.8892525
vt 0.08911677 0.923791
vt 0.06836354 0.923791
vt 0.06836354 0.852296
vt 0.08911677 0.852296
vt 0.08911677 0.8868344
vt 0.06836354 0.8868344
vt 0.2022218 0.8892525
vt 0.222975 0.8892525
vt 0.222975 0.923791
vt 0.2022218 0.923791
vt 0.04605383 0.778383
vt 0.06680706 0.778383
vt 0.06680706 0.8129214
vt 0.04605383 0.8129214
vt 0.3360801 0.8892525
vt 0.3568333 0.8892525
vt 0.3568333 0.923791
vt 0.3360801 0.923791
vt 0.2691509 0.8892525
vt 0.2899042 0.8892525
vt 0.2899042 0.923791
vt 0.2691509 0.923791
vt 0.09067325 0.8892525
vt 0.1114265 0.8892525
vt 0.1114265 0.923791
vt 0.09067325 0.923791
vt 0.04605383 0.7414264
vt 0.06680706 0.7414264
vt 0.06680706 0.7759649
vt 0.04605383 0.7759649
vt 0.02374412 0.5936003
vt 0.04449735 0.5936003
vt 0.04449735 0.6281388
vt 0.02374412 0.6281388
vt 0.112983 0.8892525
vt 0.1337362 0.8892525
vt 0.1337362 0.923791
vt 0.112983 0.923791
vt 0.001434406 0.852296
vt 0.02218764 0.852296
vt 0.02218764 0.8868344
vt 0.001434406 0.8868344
vt 0.1799121 0.8892525
vt 0.2006653 0.8892525
vt 0.2006653 0.923791
vt 0.1799121 0.923791
vt 0.1352927 0.8892525
vt 0.1560459 0.8892525
vt 0.1560459 0.923791
vt 0.1352927 0.923791
vt 0.001434406 0.5936003
vt 0.02218764 0.5936003
vt 0.02218764 0.6281388
vt 0.001434406 0.6281388
vt 0.3583898 0.8892525
vt 0.379143 0.8892525
vt 0.379143 0.923791
vt 0.3583898 0.923791
vt 0.1576024 0.8892525
vt 0.1783556 0.8892525
vt 0.1783556 0.923791
vt 0.1576024 0.923791
vt 0.1352927 0.852296
vt 0.1560459 0.852296
vt 0.1560459 0.8868344
vt 0.1352927 0.8868344
vt 0.2022218 0.852296
vt 0.222975 0.852296
vt 0.222975 0.8868344
vt 0.2022218 0.8868344
vt 0.2914607 0.8892525
vt 0.3122139 0.8892525
vt 0.3122139 0.923791
vt 0.2914607 0.923791
vt 0.02374412 0.8892525
vt 0.04449735 0.8892525
vt 0.04449735 0.923791
vt 0.02374412 0.923791
vt 0.2468412 0.8892525
vt 0.2675945 0.8892525
vt 0.2675945 0.923791
vt 0.2468412 0.923791
vt 0.09067325 0.852296
vt 0.1114265 0.852296
vt 0.1114265 0.8868344
vt 0.09067325 0.8868344
vt 0.02374412 0.7044699
vt 0.04449735 0.7044699
vt 0.04449735 0.7390084
vt 0.02374412 0.7390084
vt 0.001434406 0.4457743
vt 0.02218764 0.4457743
vt 0.02218764 0.4803127
vt 0.001434406 0.4803127
vt 0.06836354 0.7044699
vt 0.08911677 0.7044699
vt 0.08911677 0.7390084
vt 0.06836354 0.7390084
vt 0.04605383 0.7044699
vt 0.06680706 0.7044699
vt 0.06680706 0.7390084
vt 0.04605383 0.7390084
vt 0.09067325 0.7044699
vt 0.1114265 0.7044699
vt 0.1114265 0.7390084
vt 0.09067325 0.7390084
vt 0.001434406 0.7044699
vt 0.02218764 0.7044699
vt 0.02218764 0.7390084
vt 0.001434406 0.7390084

# Normal
vn 0 0 -1

# Groups (Count = 1)
g mesh_[00]_[00]
f  1/1/1  2/2/1  3/3/1  4/4/1 
f  2/5/1  5/6/1  6/7/1  3/8/1 
f  5/9/1  7/10/1  8/11/1  6/12/1 
f  7/13/1  9/14/1  10/15/1  8/16/1 
f  9/17/1  11/18/1  12/19/1  10/20/1 
f  11/21/1  13/22/1  14/23/1  12/24/1 
f  13/25/1  15/26/1  16/27/1  14/28/1 
f  15/29/1  17/30/1  18/31/1  16/32/1 
f  17/33/1  19/34/1  20/35/1  18/36/1 
f  19/37/1  21/38/1  22/39/1  20/40/1 
f  21/25/1  23/26/1  24/27/1  22/28/1 
f  23/41/1  25/42/1  26/43/1  24/44/1 
f  25/45/1  27/46/1  28/47/1  26/48/1 
f  27/49/1  29/50/1  30/51/1  28/52/1 
f  29/45/1  31/46/1  32/47/1  30/48/1 
f  33/53/1  34/54/1  2/55/1  1/56/1 
f  34/57/1  35/58/1  5/59/1  2/60/1 
f  35/61/1  36/62/1  7/63/1  5/64/1 
f  36/65/1  37/66/1  9/67/1  7/68/1 
f  37/69/1  38/70/1  11/71/1  9/72/1 
f  38/25/1  39/26/1  13/27/1  11/28/1 
f  39/25/1  40/26/1  15/27/1  13/28/1 
f  40/25/1  41/26/1  17/27/1  15/28/1 
f  41/73/1  42/74/1  19/75/1  17/76/1 
f  42/77/1  43/78/1  21/79/1  19/80/1 
f  43/25/1  44/26/1  23/27/1  21/28/1 
f  44/81/1  45/82/1  25/83/1  23/84/1 
f  45/73/1  46/74/1  27/75/1  25/76/1 
f  46/85/1  47/86/1  29/87/1  27/88/1 
f  47/89/1  48/90/1  31/91/1  29/92/1 
f  49/93/1  50/94/1  34/95/1  33/96/1 
f  50/97/1  51/98/1  35/99/1  34/100/1 
f  51/101/1  52/102/1  36/103/1  35/104/1 
f  52/105/1  53/106/1  37/107/1  36/108/1 
f  53/25/1  54/26/1  38/27/1  37/28/1 
f  54/25/1  55/26/1  39/27/1  38/28/1 
f  55/21/1  56/22/1  40/23/1  39/24/1 
f  56/109/1  57/110/1  41/111/1  40/112/1 
f  57/113/1  58/114/1  42/115/1  41/116/1 
f  58/85/1  59/86/1  43/87/1  42/88/1 
f  59/21/1  60/22/1  44/23/1  43/24/1 
f  60/117/1  61/118/1  45/119/1  44/120/1 
f  61/121/1  62/122/1  46/123/1  45/124/1 
f  62/85/1  63/86/1  47/87/1  46/88/1 
f  63/25/1  64/26/1  48/27/1  47/28/1 
f  65/21/1  66/22/1  50/23/1  49/24/1 
f  66/113/1  67/114/1  51/115/1  50/116/1 
f  67/125/1  68/126/1  52/127/1  51/128/1 
f  68/73/1  69/74/1  53/75/1  52/76/1 
f  69/101/1  70/102/1  54/103/1  53/104/1 
f  70/25/1  71/26/1  55/27/1  54/28/1 
f  71/25/1  72/26/1  56/27/1  55/28/1 
f  72/25/1  73/26/1  57/27/1  56/28/1 
f  73/129/1  74/130/1  58/131/1  57/132/1 
f  74/113/1  75/114/1  59/115/1  58/116/1 
f  75/133/1  76/134/1  60/135/1  59/136/1 
f  76/81/1  77/82/1  61/83/1  60/84/1 
f  77/25/1  78/26/1  62/27/1  61/28/1 
f  78/113/1  79/114/1  63/115/1  62/116/1 
f  79/77/1  80/78/1  64/79/1  63/80/1 
f  81/25/1  82/26/1  66/27/1  65/28/1 
f  82/25/1  83/26/1  67/27/1  66/28/1 
f  83/105/1  84/106/1  68/107/1  67/108/1 
f  84/113/1  85/114/1  69/115/1  68/116/1 
f  85/137/1  86/138/1  70/139/1  69/140/1 
f  86/105/1  87/106/1  71/107/1  70/108/1 
f  87/25/1  88/26/1  72/27/1  71/28/1 
f  88/21/1  89/22/1  73/23/1  72/24/1 
f  89/25/1  90/26/1  74/27/1  73/28/1 
f  90/25/1  91/26/1  75/27/1  74/28/1 
f  91/25/1  92/26/1  76/27/1  75/28/1 
f  92/141/1  93/142/1  77/143/1  76/144/1 
f  93/145/1  94/146/1  78/147/1  77/148/1 
f  94/149/1  95/150/1  79/151/1  78/152/1 
f  95/113/1  96/114/1  80/115/1  79/116/1 
f  97/25/1  98/26/1  82/27/1  81/28/1 
f  98/25/1  99/26/1  83/27/1  82/28/1 
f  99/25/1  100/26/1  84/27/1  83/28/1 
f  100/105/1  101/106/1  85/107/1  84/108/1 
f  101/25/1  102/26/1  86/27/1  85/28/1 
f  102/25/1  103/26/1  87/27/1  86/28/1 
f  103/25/1  104/26/1  88/27/1  87/28/1 
f  104/25/1  105/26/1  89/27/1  88/28/1 
f  105/21/1  106/22/1  90/23/1  89/24/1 
f  106/25/1  107/26/1  91/27/1  90/28/1 
f  107/25/1  108/26/1  92/27/1  91/28/1 
f  108/25/1  109/26/1  93/27/1  92/28/1 
f  109/117/1  110/118/1  94/119/1  93/120/1 
f  110/153/1  111/154/1  95/155/1  94/156/1 
f  111/97/1  112/98/1  96/99/1  95/100/1 
f  113/105/1  114/106/1  98/107/1  97/108/1 
f  114/25/1  115/26/1  99/27/1  98/28/1 
f  115/105/1  116/106/1  100/107/1  99/108/1 
f  116/105/1  117/106/1  101/107/1  100/108/1 
f  117/25/1  118/26/1  102/27/1  101/28/1 
f  118/25/1  119/26/1  103/27/1  102/28/1 
f  119/21/1  120/22/1  104/23/1  103/24/1 
f  120/25/1  121/26/1  105/27/1  104/28/1 
f  121/105/1  122/106/1  106/107/1  105/108/1 
f  122/105/1  123/106/1  107/107/1  106/108/1 
f  123/25/1  124/26/1  108/27/1  107/28/1 
f  124/25/1  125/26/1  109/27/1  108/28/1 
f  125/141/1  126/142/1  110/143/1  109/144/1 
f  126/145/1  127/146/1  111/147/1  110/148/1 
f  127/113/1  128/114/1  112/115/1  111/116/1 
f  129/105/1  130/106/1  114/107/1  113/108/1 
f  130/73/1  131/74/1  115/75/1  114/76/1 
f  131/101/1  132/102/1  116/103/1  115/104/1 
f  132/105/1  133/106/1  117/107/1  116/108/1 
f  133/25/1  134/26/1  118/27/1  117/28/1 
f  134/25/1  135/26/1  119/27/1  118/28/1 
f  135/105/1  136/106/1  120/107/1  119/108/1 
f  136/25/1  137/26/1  121/27/1  120/28/1 
f  137/25/1  138/26/1  122/27/1  121/28/1 
f  138/105/1  139/106/1  123/107/1  122/108/1 
f  139/25/1  140/26/1  124/27/1  123/28/1 
f  140/25/1  141/26/1  125/27/1  124/28/1 
f  141/25/1  142/26/1  126/27/1  125/28/1 
f  142/41/1  143/42/1  127/43/1  126/44/1 
f  143/25/1  144/26/1  128/27/1  127/28/1 
f  145/25/1  146/26/1  130/27/1  129/28/1 
f  146/113/1  147/114/1  131/115/1  130/116/1 
f  147/157/1  148/158/1  132/159/1  131/160/1 
f  148/21/1  149/22/1  133/23/1  132/24/1 
f  149/25/1  150/26/1  134/27/1  133/28/1 
f  150/105/1  151/106/1  135/107/1  134/108/1 
f  151/21/1  152/22/1  136/23/1  135/24/1 
f  152/105/1  153/106/1  137/107/1  136/108/1 
f  153/25/1  154/26/1  138/27/1  137/28/1 
f  154/25/1  155/26/1  139/27/1  138/28/1 
f  155/25/1  156/26/1  140/27/1  139/28/1 
f  156/25/1  157/26/1  141/27/1  140/28/1 
f  157/25/1  158/26/1  142/27/1  141/28/1 
f  158/161/1  159/162/1  143/163/1  142/164/1 
f  159/165/1  160/166/1  144/167/1  143/168/1 
f  161/169/1  162/170/1  146/171/1  145/172/1 
f  162/105/1  163/106/1  147/107/1  146/108/1 
f  163/25/1  164/26/1  148/27/1  147/28/1 
f  164/73/1  165/74/1  149/75/1  148/76/1 
f  165/97/1  166/98/1  150/99/1  149/100/1 
f  166/101/1  167/102/1  151/103/1  150/104/1 
f  167/105/1  168/106/1  152/107/1  151/108/1 
f  168/25/1  169/26/1  153/27/1  152/28/1 
f  169/21/1  170/22/1  154/23/1  153/24/1 
f  170/25/1  171/26/1  155/27/1  154/28/1 
f  171/173/1  172/174/1  156/175/1  155/176/1 
f  172/177/1  173/178/1  157/179/1  156/180/1 
f  173/181/1  174/182/1  158/183/1  157/184/1 
f  174/185/1  175/186/1  159/187/1  158/188/1 
f  175/185/1  176/186/1  160/187/1  159/188/1 
