# Tiled2Unity generated file. Do not modify by hand.
# Wavefront file for 'CharlockIsland_mesh_0007.obj'

# Vertices (Count = 956)
v 0 -16 0
v -16 -16 0
v -16 0 0
v 0 0 0
v -16 -16 0
v -32 -16 0
v -32 0 0
v -16 0 0
v -32 -16 0
v -48 -16 0
v -48 0 0
v -32 0 0
v -48 -16 0
v -64 -16 0
v -64 0 0
v -48 0 0
v -64 -16 0
v -80 -16 0
v -80 0 0
v -64 0 0
v -80 -16 0
v -96 -16 0
v -96 0 0
v -80 0 0
v -96 -16 0
v -112 -16 0
v -112 0 0
v -96 0 0
v -112 -16 0
v -128 -16 0
v -128 0 0
v -112 0 0
v -128 -16 0
v -144 -16 0
v -144 0 0
v -128 0 0
v -144 -16 0
v -160 -16 0
v -160 0 0
v -144 0 0
v -160 -16 0
v -176 -16 0
v -176 0 0
v -160 0 0
v -176 -16 0
v -192 -16 0
v -192 0 0
v -176 0 0
v -192 -16 0
v -208 -16 0
v -208 0 0
v -192 0 0
v -208 -16 0
v -224 -16 0
v -224 0 0
v -208 0 0
v -224 -16 0
v -240 -16 0
v -240 0 0
v -224 0 0
v -240 -16 0
v -256 -16 0
v -256 0 0
v -240 0 0
v -256 -16 0
v -272 -16 0
v -272 0 0
v -256 0 0
v -272 -16 0
v -288 -16 0
v -288 0 0
v -272 0 0
v -288 -16 0
v -304 -16 0
v -304 0 0
v -288 0 0
v -304 -16 0
v -320 -16 0
v -320 0 0
v -304 0 0
v -320 -16 0
v -336 -16 0
v -336 0 0
v -320 0 0
v -336 -16 0
v -352 -16 0
v -352 0 0
v -336 0 0
v 0 -32 0
v -16 -32 0
v -16 -16 0
v 0 -16 0
v -16 -32 0
v -32 -32 0
v -32 -16 0
v -16 -16 0
v -32 -32 0
v -48 -32 0
v -48 -16 0
v -32 -16 0
v -48 -32 0
v -64 -32 0
v -64 -16 0
v -48 -16 0
v -64 -32 0
v -80 -32 0
v -80 -16 0
v -64 -16 0
v -80 -32 0
v -96 -32 0
v -96 -16 0
v -80 -16 0
v -96 -32 0
v -112 -32 0
v -112 -16 0
v -96 -16 0
v -112 -32 0
v -128 -32 0
v -128 -16 0
v -112 -16 0
v -176 -32 0
v -192 -32 0
v -192 -16 0
v -176 -16 0
v -192 -32 0
v -208 -32 0
v -208 -16 0
v -192 -16 0
v -208 -32 0
v -224 -32 0
v -224 -16 0
v -208 -16 0
v -224 -32 0
v -240 -32 0
v -240 -16 0
v -224 -16 0
v -240 -32 0
v -256 -32 0
v -256 -16 0
v -240 -16 0
v -256 -32 0
v -272 -32 0
v -272 -16 0
v -256 -16 0
v -272 -32 0
v -288 -32 0
v -288 -16 0
v -272 -16 0
v -288 -32 0
v -304 -32 0
v -304 -16 0
v -288 -16 0
v -304 -32 0
v -320 -32 0
v -320 -16 0
v -304 -16 0
v -320 -32 0
v -336 -32 0
v -336 -16 0
v -320 -16 0
v -336 -32 0
v -352 -32 0
v -352 -16 0
v -336 -16 0
v 0 -48 0
v -16 -48 0
v -16 -32 0
v 0 -32 0
v -16 -48 0
v -32 -48 0
v -32 -32 0
v -16 -32 0
v -32 -48 0
v -48 -48 0
v -48 -32 0
v -32 -32 0
v -48 -48 0
v -64 -48 0
v -64 -32 0
v -48 -32 0
v -64 -48 0
v -80 -48 0
v -80 -32 0
v -64 -32 0
v -80 -48 0
v -96 -48 0
v -96 -32 0
v -80 -32 0
v -192 -48 0
v -208 -48 0
v -208 -32 0
v -192 -32 0
v -208 -48 0
v -224 -48 0
v -224 -32 0
v -208 -32 0
v -224 -48 0
v -240 -48 0
v -240 -32 0
v -224 -32 0
v -240 -48 0
v -256 -48 0
v -256 -32 0
v -240 -32 0
v -256 -48 0
v -272 -48 0
v -272 -32 0
v -256 -32 0
v -272 -48 0
v -288 -48 0
v -288 -32 0
v -272 -32 0
v -288 -48 0
v -304 -48 0
v -304 -32 0
v -288 -32 0
v -304 -48 0
v -320 -48 0
v -320 -32 0
v -304 -32 0
v -320 -48 0
v -336 -48 0
v -336 -32 0
v -320 -32 0
v -336 -48 0
v -352 -48 0
v -352 -32 0
v -336 -32 0
v 0 -64 0
v -16 -64 0
v -16 -48 0
v 0 -48 0
v -16 -64 0
v -32 -64 0
v -32 -48 0
v -16 -48 0
v -32 -64 0
v -48 -64 0
v -48 -48 0
v -32 -48 0
v -48 -64 0
v -64 -64 0
v -64 -48 0
v -48 -48 0
v -224 -64 0
v -240 -64 0
v -240 -48 0
v -224 -48 0
v -240 -64 0
v -256 -64 0
v -256 -48 0
v -240 -48 0
v -256 -64 0
v -272 -64 0
v -272 -48 0
v -256 -48 0
v -272 -64 0
v -288 -64 0
v -288 -48 0
v -272 -48 0
v -288 -64 0
v -304 -64 0
v -304 -48 0
v -288 -48 0
v -304 -64 0
v -320 -64 0
v -320 -48 0
v -304 -48 0
v -320 -64 0
v -336 -64 0
v -336 -48 0
v -320 -48 0
v -336 -64 0
v -352 -64 0
v -352 -48 0
v -336 -48 0
v 0 -80 0
v -16 -80 0
v -16 -64 0
v 0 -64 0
v -16 -80 0
v -32 -80 0
v -32 -64 0
v -16 -64 0
v -32 -80 0
v -48 -80 0
v -48 -64 0
v -32 -64 0
v -240 -80 0
v -256 -80 0
v -256 -64 0
v -240 -64 0
v -256 -80 0
v -272 -80 0
v -272 -64 0
v -256 -64 0
v -272 -80 0
v -288 -80 0
v -288 -64 0
v -272 -64 0
v -288 -80 0
v -304 -80 0
v -304 -64 0
v -288 -64 0
v -304 -80 0
v -320 -80 0
v -320 -64 0
v -304 -64 0
v -320 -80 0
v -336 -80 0
v -336 -64 0
v -320 -64 0
v -336 -80 0
v -352 -80 0
v -352 -64 0
v -336 -64 0
v 0 -96 0
v -16 -96 0
v -16 -80 0
v 0 -80 0
v -16 -96 0
v -32 -96 0
v -32 -80 0
v -16 -80 0
v -256 -96 0
v -272 -96 0
v -272 -80 0
v -256 -80 0
v -272 -96 0
v -288 -96 0
v -288 -80 0
v -272 -80 0
v -336 -96 0
v -352 -96 0
v -352 -80 0
v -336 -80 0
v 0 -112 0
v -16 -112 0
v -16 -96 0
v 0 -96 0
v -320 -112 0
v -336 -112 0
v -336 -96 0
v -320 -96 0
v -336 -112 0
v -352 -112 0
v -352 -96 0
v -336 -96 0
v 0 -128 0
v -16 -128 0
v -16 -112 0
v 0 -112 0
v -16 -128 0
v -32 -128 0
v -32 -112 0
v -16 -112 0
v -320 -128 0
v -336 -128 0
v -336 -112 0
v -320 -112 0
v -336 -128 0
v -352 -128 0
v -352 -112 0
v -336 -112 0
v 0 -144 0
v -16 -144 0
v -16 -128 0
v 0 -128 0
v -304 -144 0
v -320 -144 0
v -320 -128 0
v -304 -128 0
v -320 -144 0
v -336 -144 0
v -336 -128 0
v -320 -128 0
v -336 -144 0
v -352 -144 0
v -352 -128 0
v -336 -128 0
v 0 -160 0
v -16 -160 0
v -16 -144 0
v 0 -144 0
v -16 -160 0
v -32 -160 0
v -32 -144 0
v -16 -144 0
v -288 -160 0
v -304 -160 0
v -304 -144 0
v -288 -144 0
v -304 -160 0
v -320 -160 0
v -320 -144 0
v -304 -144 0
v -320 -160 0
v -336 -160 0
v -336 -144 0
v -320 -144 0
v -336 -160 0
v -352 -160 0
v -352 -144 0
v -336 -144 0
v 0 -176 0
v -16 -176 0
v -16 -160 0
v 0 -160 0
v -16 -176 0
v -32 -176 0
v -32 -160 0
v -16 -160 0
v -304 -176 0
v -320 -176 0
v -320 -160 0
v -304 -160 0
v -320 -176 0
v -336 -176 0
v -336 -160 0
v -320 -160 0
v -336 -176 0
v -352 -176 0
v -352 -160 0
v -336 -160 0
v 0 -192 0
v -16 -192 0
v -16 -176 0
v 0 -176 0
v -16 -192 0
v -32 -192 0
v -32 -176 0
v -16 -176 0
v -32 -192 0
v -48 -192 0
v -48 -176 0
v -32 -176 0
v -304 -192 0
v -320 -192 0
v -320 -176 0
v -304 -176 0
v -320 -192 0
v -336 -192 0
v -336 -176 0
v -320 -176 0
v -336 -192 0
v -352 -192 0
v -352 -176 0
v -336 -176 0
v 0 -208 0
v -16 -208 0
v -16 -192 0
v 0 -192 0
v -16 -208 0
v -32 -208 0
v -32 -192 0
v -16 -192 0
v -32 -208 0
v -48 -208 0
v -48 -192 0
v -32 -192 0
v -288 -208 0
v -304 -208 0
v -304 -192 0
v -288 -192 0
v -304 -208 0
v -320 -208 0
v -320 -192 0
v -304 -192 0
v -320 -208 0
v -336 -208 0
v -336 -192 0
v -320 -192 0
v -336 -208 0
v -352 -208 0
v -352 -192 0
v -336 -192 0
v 0 -224 0
v -16 -224 0
v -16 -208 0
v 0 -208 0
v -16 -224 0
v -32 -224 0
v -32 -208 0
v -16 -208 0
v -32 -224 0
v -48 -224 0
v -48 -208 0
v -32 -208 0
v -288 -224 0
v -304 -224 0
v -304 -208 0
v -288 -208 0
v -304 -224 0
v -320 -224 0
v -320 -208 0
v -304 -208 0
v -320 -224 0
v -336 -224 0
v -336 -208 0
v -320 -208 0
v -336 -224 0
v -352 -224 0
v -352 -208 0
v -336 -208 0
v 0 -240 0
v -16 -240 0
v -16 -224 0
v 0 -224 0
v -16 -240 0
v -32 -240 0
v -32 -224 0
v -16 -224 0
v -32 -240 0
v -48 -240 0
v -48 -224 0
v -32 -224 0
v -48 -240 0
v -64 -240 0
v -64 -224 0
v -48 -224 0
v -304 -240 0
v -320 -240 0
v -320 -224 0
v -304 -224 0
v -320 -240 0
v -336 -240 0
v -336 -224 0
v -320 -224 0
v -336 -240 0
v -352 -240 0
v -352 -224 0
v -336 -224 0
v 0 -256 0
v -16 -256 0
v -16 -240 0
v 0 -240 0
v -16 -256 0
v -32 -256 0
v -32 -240 0
v -16 -240 0
v -32 -256 0
v -48 -256 0
v -48 -240 0
v -32 -240 0
v -48 -256 0
v -64 -256 0
v -64 -240 0
v -48 -240 0
v -304 -256 0
v -320 -256 0
v -320 -240 0
v -304 -240 0
v -320 -256 0
v -336 -256 0
v -336 -240 0
v -320 -240 0
v -336 -256 0
v -352 -256 0
v -352 -240 0
v -336 -240 0
v 0 -272 0
v -16 -272 0
v -16 -256 0
v 0 -256 0
v -16 -272 0
v -32 -272 0
v -32 -256 0
v -16 -256 0
v -32 -272 0
v -48 -272 0
v -48 -256 0
v -32 -256 0
v -288 -272 0
v -304 -272 0
v -304 -256 0
v -288 -256 0
v -304 -272 0
v -320 -272 0
v -320 -256 0
v -304 -256 0
v -320 -272 0
v -336 -272 0
v -336 -256 0
v -320 -256 0
v -336 -272 0
v -352 -272 0
v -352 -256 0
v -336 -256 0
v 0 -288 0
v -16 -288 0
v -16 -272 0
v 0 -272 0
v -16 -288 0
v -32 -288 0
v -32 -272 0
v -16 -272 0
v -32 -288 0
v -48 -288 0
v -48 -272 0
v -32 -272 0
v -48 -288 0
v -64 -288 0
v -64 -272 0
v -48 -272 0
v -272 -288 0
v -288 -288 0
v -288 -272 0
v -272 -272 0
v -288 -288 0
v -304 -288 0
v -304 -272 0
v -288 -272 0
v -304 -288 0
v -320 -288 0
v -320 -272 0
v -304 -272 0
v -320 -288 0
v -336 -288 0
v -336 -272 0
v -320 -272 0
v -336 -288 0
v -352 -288 0
v -352 -272 0
v -336 -272 0
v 0 -304 0
v -16 -304 0
v -16 -288 0
v 0 -288 0
v -16 -304 0
v -32 -304 0
v -32 -288 0
v -16 -288 0
v -32 -304 0
v -48 -304 0
v -48 -288 0
v -32 -288 0
v -48 -304 0
v -64 -304 0
v -64 -288 0
v -48 -288 0
v -64 -304 0
v -80 -304 0
v -80 -288 0
v -64 -288 0
v -288 -304 0
v -304 -304 0
v -304 -288 0
v -288 -288 0
v -304 -304 0
v -320 -304 0
v -320 -288 0
v -304 -288 0
v -320 -304 0
v -336 -304 0
v -336 -288 0
v -320 -288 0
v -336 -304 0
v -352 -304 0
v -352 -288 0
v -336 -288 0
v 0 -320 0
v -16 -320 0
v -16 -304 0
v 0 -304 0
v -16 -320 0
v -32 -320 0
v -32 -304 0
v -16 -304 0
v -32 -320 0
v -48 -320 0
v -48 -304 0
v -32 -304 0
v -48 -320 0
v -64 -320 0
v -64 -304 0
v -48 -304 0
v -64 -320 0
v -80 -320 0
v -80 -304 0
v -64 -304 0
v -288 -320 0
v -304 -320 0
v -304 -304 0
v -288 -304 0
v -304 -320 0
v -320 -320 0
v -320 -304 0
v -304 -304 0
v -320 -320 0
v -336 -320 0
v -336 -304 0
v -320 -304 0
v -336 -320 0
v -352 -320 0
v -352 -304 0
v -336 -304 0
v 0 -336 0
v -16 -336 0
v -16 -320 0
v 0 -320 0
v -16 -336 0
v -32 -336 0
v -32 -320 0
v -16 -320 0
v -32 -336 0
v -48 -336 0
v -48 -320 0
v -32 -320 0
v -48 -336 0
v -64 -336 0
v -64 -320 0
v -48 -320 0
v -64 -336 0
v -80 -336 0
v -80 -320 0
v -64 -320 0
v -80 -336 0
v -96 -336 0
v -96 -320 0
v -80 -320 0
v -272 -336 0
v -288 -336 0
v -288 -320 0
v -272 -320 0
v -288 -336 0
v -304 -336 0
v -304 -320 0
v -288 -320 0
v -304 -336 0
v -320 -336 0
v -320 -320 0
v -304 -320 0
v -320 -336 0
v -336 -336 0
v -336 -320 0
v -320 -320 0
v -336 -336 0
v -352 -336 0
v -352 -320 0
v -336 -320 0
v 0 -352 0
v -16 -352 0
v -16 -336 0
v 0 -336 0
v -16 -352 0
v -32 -352 0
v -32 -336 0
v -16 -336 0
v -32 -352 0
v -48 -352 0
v -48 -336 0
v -32 -336 0
v -48 -352 0
v -64 -352 0
v -64 -336 0
v -48 -336 0
v -64 -352 0
v -80 -352 0
v -80 -336 0
v -64 -336 0
v -80 -352 0
v -96 -352 0
v -96 -336 0
v -80 -336 0
v -96 -352 0
v -112 -352 0
v -112 -336 0
v -96 -336 0
v -240 -352 0
v -256 -352 0
v -256 -336 0
v -240 -336 0
v -256 -352 0
v -272 -352 0
v -272 -336 0
v -256 -336 0
v -272 -352 0
v -288 -352 0
v -288 -336 0
v -272 -336 0
v -288 -352 0
v -304 -352 0
v -304 -336 0
v -288 -336 0
v -304 -352 0
v -320 -352 0
v -320 -336 0
v -304 -336 0
v -320 -352 0
v -336 -352 0
v -336 -336 0
v -320 -336 0
v -336 -352 0
v -352 -352 0
v -352 -336 0
v -336 -336 0
v 0 -368 0
v -16 -368 0
v -16 -352 0
v 0 -352 0
v -16 -368 0
v -32 -368 0
v -32 -352 0
v -16 -352 0
v -32 -368 0
v -48 -368 0
v -48 -352 0
v -32 -352 0
v -48 -368 0
v -64 -368 0
v -64 -352 0
v -48 -352 0
v -64 -368 0
v -80 -368 0
v -80 -352 0
v -64 -352 0
v -80 -368 0
v -96 -368 0
v -96 -352 0
v -80 -352 0
v -96 -368 0
v -112 -368 0
v -112 -352 0
v -96 -352 0
v -112 -368 0
v -128 -368 0
v -128 -352 0
v -112 -352 0
v -128 -368 0
v -144 -368 0
v -144 -352 0
v -128 -352 0
v -208 -368 0
v -224 -368 0
v -224 -352 0
v -208 -352 0
v -224 -368 0
v -240 -368 0
v -240 -352 0
v -224 -352 0
v -240 -368 0
v -256 -368 0
v -256 -352 0
v -240 -352 0
v -256 -368 0
v -272 -368 0
v -272 -352 0
v -256 -352 0
v -272 -368 0
v -288 -368 0
v -288 -352 0
v -272 -352 0
v -288 -368 0
v -304 -368 0
v -304 -352 0
v -288 -352 0
v -304 -368 0
v -320 -368 0
v -320 -352 0
v -304 -352 0
v -320 -368 0
v -336 -368 0
v -336 -352 0
v -320 -352 0
v -336 -368 0
v -352 -368 0
v -352 -352 0
v -336 -352 0
v 0 -384 0
v -16 -384 0
v -16 -368 0
v 0 -368 0
v -16 -384 0
v -32 -384 0
v -32 -368 0
v -16 -368 0
v -32 -384 0
v -48 -384 0
v -48 -368 0
v -32 -368 0
v -48 -384 0
v -64 -384 0
v -64 -368 0
v -48 -368 0
v -64 -384 0
v -80 -384 0
v -80 -368 0
v -64 -368 0
v -80 -384 0
v -96 -384 0
v -96 -368 0
v -80 -368 0
v -96 -384 0
v -112 -384 0
v -112 -368 0
v -96 -368 0
v -112 -384 0
v -128 -384 0
v -128 -368 0
v -112 -368 0
v -128 -384 0
v -144 -384 0
v -144 -368 0
v -128 -368 0
v -144 -384 0
v -160 -384 0
v -160 -368 0
v -144 -368 0
v -160 -384 0
v -176 -384 0
v -176 -368 0
v -160 -368 0
v -176 -384 0
v -192 -384 0
v -192 -368 0
v -176 -368 0
v -192 -384 0
v -208 -384 0
v -208 -368 0
v -192 -368 0
v -208 -384 0
v -224 -384 0
v -224 -368 0
v -208 -368 0
v -224 -384 0
v -240 -384 0
v -240 -368 0
v -224 -368 0
v -240 -384 0
v -256 -384 0
v -256 -368 0
v -240 -368 0
v -256 -384 0
v -272 -384 0
v -272 -368 0
v -256 -368 0
v -272 -384 0
v -288 -384 0
v -288 -368 0
v -272 -368 0
v -288 -384 0
v -304 -384 0
v -304 -368 0
v -288 -368 0
v -304 -384 0
v -320 -384 0
v -320 -368 0
v -304 -368 0
v -320 -384 0
v -336 -384 0
v -336 -368 0
v -320 -368 0
v -336 -384 0
v -352 -384 0
v -352 -368 0
v -336 -368 0

# Texture cooridinates (Count = 44)
vt 0 0.01960784
vt 0.07843138 0.01960784
vt 0.07843138 0.3333333
vt 0 0.3333333
vt 0.08333334 0.01960784
vt 0.1617647 0.01960784
vt 0.1617647 0.3333333
vt 0.08333334 0.3333333
vt 0.6666667 0.01960784
vt 0.7450981 0.01960784
vt 0.7450981 0.3333333
vt 0.6666667 0.3333333
vt 0.1666667 0.01960784
vt 0.245098 0.01960784
vt 0.245098 0.3333333
vt 0.1666667 0.3333333
vt 0.25 0.01960784
vt 0.3284314 0.01960784
vt 0.3284314 0.3333333
vt 0.25 0.3333333
vt 0.5833333 0.01960784
vt 0.6617647 0.01960784
vt 0.6617647 0.3333333
vt 0.5833333 0.3333333
vt 0.3333333 0.01960784
vt 0.4117647 0.01960784
vt 0.4117647 0.3333333
vt 0.3333333 0.3333333
vt 0.8333333 0.01960784
vt 0.9117647 0.01960784
vt 0.9117647 0.3333333
vt 0.8333333 0.3333333
vt 0.5 0.01960784
vt 0.5784314 0.01960784
vt 0.5784314 0.3333333
vt 0.5 0.3333333
vt 0.75 0.01960784
vt 0.8284314 0.01960784
vt 0.8284314 0.3333333
vt 0.75 0.3333333
vt 0.4166667 0.01960784
vt 0.495098 0.01960784
vt 0.495098 0.3333333
vt 0.4166667 0.3333333

# Normal
vn 0 0 -1

# Mesh description
g CharlockIsland_mesh_0007

# Faces
f 1/1/1 2/2/1 3/3/1 4/4/1
f 5/1/1 6/2/1 7/3/1 8/4/1
f 9/1/1 10/2/1 11/3/1 12/4/1
f 13/1/1 14/2/1 15/3/1 16/4/1
f 17/1/1 18/2/1 19/3/1 20/4/1
f 21/1/1 22/2/1 23/3/1 24/4/1
f 25/1/1 26/2/1 27/3/1 28/4/1
f 29/1/1 30/2/1 31/3/1 32/4/1
f 33/5/1 34/6/1 35/7/1 36/8/1
f 37/5/1 38/6/1 39/7/1 40/8/1
f 41/5/1 42/6/1 43/7/1 44/8/1
f 45/1/1 46/2/1 47/3/1 48/4/1
f 49/1/1 50/2/1 51/3/1 52/4/1
f 53/1/1 54/2/1 55/3/1 56/4/1
f 57/1/1 58/2/1 59/3/1 60/4/1
f 61/1/1 62/2/1 63/3/1 64/4/1
f 65/1/1 66/2/1 67/3/1 68/4/1
f 69/1/1 70/2/1 71/3/1 72/4/1
f 73/1/1 74/2/1 75/3/1 76/4/1
f 77/1/1 78/2/1 79/3/1 80/4/1
f 81/1/1 82/2/1 83/3/1 84/4/1
f 85/1/1 86/2/1 87/3/1 88/4/1
f 89/1/1 90/2/1 91/3/1 92/4/1
f 93/1/1 94/2/1 95/3/1 96/4/1
f 97/1/1 98/2/1 99/3/1 100/4/1
f 101/1/1 102/2/1 103/3/1 104/4/1
f 105/1/1 106/2/1 107/3/1 108/4/1
f 109/1/1 110/2/1 111/3/1 112/4/1
f 113/5/1 114/6/1 115/7/1 116/8/1
f 117/9/1 118/10/1 119/11/1 120/12/1
f 121/13/1 122/14/1 123/15/1 124/16/1
f 125/1/1 126/2/1 127/3/1 128/4/1
f 129/1/1 130/2/1 131/3/1 132/4/1
f 133/1/1 134/2/1 135/3/1 136/4/1
f 137/1/1 138/2/1 139/3/1 140/4/1
f 141/1/1 142/2/1 143/3/1 144/4/1
f 145/1/1 146/2/1 147/3/1 148/4/1
f 149/1/1 150/2/1 151/3/1 152/4/1
f 153/1/1 154/2/1 155/3/1 156/4/1
f 157/1/1 158/2/1 159/3/1 160/4/1
f 161/1/1 162/2/1 163/3/1 164/4/1
f 165/1/1 166/2/1 167/3/1 168/4/1
f 169/1/1 170/2/1 171/3/1 172/4/1
f 173/1/1 174/2/1 175/3/1 176/4/1
f 177/1/1 178/2/1 179/3/1 180/4/1
f 181/5/1 182/6/1 183/7/1 184/8/1
f 185/9/1 186/10/1 187/11/1 188/12/1
f 189/13/1 190/14/1 191/15/1 192/16/1
f 193/5/1 194/6/1 195/7/1 196/8/1
f 197/1/1 198/2/1 199/3/1 200/4/1
f 201/1/1 202/2/1 203/3/1 204/4/1
f 205/1/1 206/2/1 207/3/1 208/4/1
f 209/1/1 210/2/1 211/3/1 212/4/1
f 213/1/1 214/2/1 215/3/1 216/4/1
f 217/1/1 218/2/1 219/3/1 220/4/1
f 221/1/1 222/2/1 223/3/1 224/4/1
f 225/1/1 226/2/1 227/3/1 228/4/1
f 229/1/1 230/2/1 231/3/1 232/4/1
f 233/1/1 234/2/1 235/3/1 236/4/1
f 237/1/1 238/2/1 239/3/1 240/4/1
f 241/9/1 242/10/1 243/11/1 244/12/1
f 245/13/1 246/14/1 247/15/1 248/16/1
f 249/1/1 250/2/1 251/3/1 252/4/1
f 253/1/1 254/2/1 255/3/1 256/4/1
f 257/1/1 258/2/1 259/3/1 260/4/1
f 261/1/1 262/2/1 263/3/1 264/4/1
f 265/1/1 266/2/1 267/3/1 268/4/1
f 269/1/1 270/2/1 271/3/1 272/4/1
f 273/1/1 274/2/1 275/3/1 276/4/1
f 277/1/1 278/2/1 279/3/1 280/4/1
f 281/1/1 282/2/1 283/3/1 284/4/1
f 285/9/1 286/10/1 287/11/1 288/12/1
f 289/13/1 290/14/1 291/15/1 292/16/1
f 293/1/1 294/2/1 295/3/1 296/4/1
f 297/1/1 298/2/1 299/3/1 300/4/1
f 301/5/1 302/6/1 303/7/1 304/8/1
f 305/5/1 306/6/1 307/7/1 308/8/1
f 309/5/1 310/6/1 311/7/1 312/8/1
f 313/1/1 314/2/1 315/3/1 316/4/1
f 317/1/1 318/2/1 319/3/1 320/4/1
f 321/9/1 322/10/1 323/11/1 324/12/1
f 325/13/1 326/14/1 327/15/1 328/16/1
f 329/9/1 330/10/1 331/11/1 332/12/1
f 333/17/1 334/18/1 335/19/1 336/20/1
f 337/21/1 338/22/1 339/23/1 340/24/1
f 341/25/1 342/26/1 343/27/1 344/28/1
f 345/1/1 346/2/1 347/3/1 348/4/1
f 349/1/1 350/2/1 351/3/1 352/4/1
f 353/29/1 354/30/1 355/31/1 356/32/1
f 357/17/1 358/18/1 359/19/1 360/20/1
f 361/1/1 362/2/1 363/3/1 364/4/1
f 365/21/1 366/22/1 367/23/1 368/24/1
f 369/25/1 370/26/1 371/27/1 372/28/1
f 373/1/1 374/2/1 375/3/1 376/4/1
f 377/1/1 378/2/1 379/3/1 380/4/1
f 381/1/1 382/2/1 383/3/1 384/4/1
f 385/33/1 386/34/1 387/35/1 388/36/1
f 389/37/1 390/38/1 391/39/1 392/40/1
f 393/1/1 394/2/1 395/3/1 396/4/1
f 397/1/1 398/2/1 399/3/1 400/4/1
f 401/1/1 402/2/1 403/3/1 404/4/1
f 405/1/1 406/2/1 407/3/1 408/4/1
f 409/21/1 410/22/1 411/23/1 412/24/1
f 413/17/1 414/18/1 415/19/1 416/20/1
f 417/1/1 418/2/1 419/3/1 420/4/1
f 421/1/1 422/2/1 423/3/1 424/4/1
f 425/1/1 426/2/1 427/3/1 428/4/1
f 429/1/1 430/2/1 431/3/1 432/4/1
f 433/33/1 434/34/1 435/35/1 436/36/1
f 437/17/1 438/18/1 439/19/1 440/20/1
f 441/1/1 442/2/1 443/3/1 444/4/1
f 445/1/1 446/2/1 447/3/1 448/4/1
f 449/1/1 450/2/1 451/3/1 452/4/1
f 453/1/1 454/2/1 455/3/1 456/4/1
f 457/21/1 458/22/1 459/23/1 460/24/1
f 461/25/1 462/26/1 463/27/1 464/28/1
f 465/1/1 466/2/1 467/3/1 468/4/1
f 469/1/1 470/2/1 471/3/1 472/4/1
f 473/1/1 474/2/1 475/3/1 476/4/1
f 477/1/1 478/2/1 479/3/1 480/4/1
f 481/1/1 482/2/1 483/3/1 484/4/1
f 485/21/1 486/22/1 487/23/1 488/24/1
f 489/13/1 490/14/1 491/15/1 492/16/1
f 493/1/1 494/2/1 495/3/1 496/4/1
f 497/1/1 498/2/1 499/3/1 500/4/1
f 501/1/1 502/2/1 503/3/1 504/4/1
f 505/1/1 506/2/1 507/3/1 508/4/1
f 509/1/1 510/2/1 511/3/1 512/4/1
f 513/1/1 514/2/1 515/3/1 516/4/1
f 517/33/1 518/34/1 519/35/1 520/36/1
f 521/17/1 522/18/1 523/19/1 524/20/1
f 525/1/1 526/2/1 527/3/1 528/4/1
f 529/1/1 530/2/1 531/3/1 532/4/1
f 533/1/1 534/2/1 535/3/1 536/4/1
f 537/1/1 538/2/1 539/3/1 540/4/1
f 541/1/1 542/2/1 543/3/1 544/4/1
f 545/9/1 546/10/1 547/11/1 548/12/1
f 549/17/1 550/18/1 551/19/1 552/20/1
f 553/1/1 554/2/1 555/3/1 556/4/1
f 557/1/1 558/2/1 559/3/1 560/4/1
f 561/1/1 562/2/1 563/3/1 564/4/1
f 565/1/1 566/2/1 567/3/1 568/4/1
f 569/21/1 570/22/1 571/23/1 572/24/1
f 573/25/1 574/26/1 575/27/1 576/28/1
f 577/1/1 578/2/1 579/3/1 580/4/1
f 581/1/1 582/2/1 583/3/1 584/4/1
f 585/1/1 586/2/1 587/3/1 588/4/1
f 589/1/1 590/2/1 591/3/1 592/4/1
f 593/1/1 594/2/1 595/3/1 596/4/1
f 597/1/1 598/2/1 599/3/1 600/4/1
f 601/33/1 602/34/1 603/35/1 604/36/1
f 605/37/1 606/38/1 607/39/1 608/40/1
f 609/1/1 610/2/1 611/3/1 612/4/1
f 613/1/1 614/2/1 615/3/1 616/4/1
f 617/1/1 618/2/1 619/3/1 620/4/1
f 621/1/1 622/2/1 623/3/1 624/4/1
f 625/1/1 626/2/1 627/3/1 628/4/1
f 629/1/1 630/2/1 631/3/1 632/4/1
f 633/1/1 634/2/1 635/3/1 636/4/1
f 637/1/1 638/2/1 639/3/1 640/4/1
f 641/33/1 642/34/1 643/35/1 644/36/1
f 645/17/1 646/18/1 647/19/1 648/20/1
f 649/1/1 650/2/1 651/3/1 652/4/1
f 653/1/1 654/2/1 655/3/1 656/4/1
f 657/1/1 658/2/1 659/3/1 660/4/1
f 661/1/1 662/2/1 663/3/1 664/4/1
f 665/1/1 666/2/1 667/3/1 668/4/1
f 669/1/1 670/2/1 671/3/1 672/4/1
f 673/1/1 674/2/1 675/3/1 676/4/1
f 677/21/1 678/22/1 679/23/1 680/24/1
f 681/17/1 682/18/1 683/19/1 684/20/1
f 685/1/1 686/2/1 687/3/1 688/4/1
f 689/1/1 690/2/1 691/3/1 692/4/1
f 693/1/1 694/2/1 695/3/1 696/4/1
f 697/1/1 698/2/1 699/3/1 700/4/1
f 701/1/1 702/2/1 703/3/1 704/4/1
f 705/1/1 706/2/1 707/3/1 708/4/1
f 709/1/1 710/2/1 711/3/1 712/4/1
f 713/1/1 714/2/1 715/3/1 716/4/1
f 717/33/1 718/34/1 719/35/1 720/36/1
f 721/25/1 722/26/1 723/27/1 724/28/1
f 725/1/1 726/2/1 727/3/1 728/4/1
f 729/1/1 730/2/1 731/3/1 732/4/1
f 733/1/1 734/2/1 735/3/1 736/4/1
f 737/1/1 738/2/1 739/3/1 740/4/1
f 741/1/1 742/2/1 743/3/1 744/4/1
f 745/1/1 746/2/1 747/3/1 748/4/1
f 749/1/1 750/2/1 751/3/1 752/4/1
f 753/1/1 754/2/1 755/3/1 756/4/1
f 757/1/1 758/2/1 759/3/1 760/4/1
f 761/1/1 762/2/1 763/3/1 764/4/1
f 765/33/1 766/34/1 767/35/1 768/36/1
f 769/25/1 770/26/1 771/27/1 772/28/1
f 773/41/1 774/42/1 775/43/1 776/44/1
f 777/1/1 778/2/1 779/3/1 780/4/1
f 781/1/1 782/2/1 783/3/1 784/4/1
f 785/1/1 786/2/1 787/3/1 788/4/1
f 789/1/1 790/2/1 791/3/1 792/4/1
f 793/1/1 794/2/1 795/3/1 796/4/1
f 797/1/1 798/2/1 799/3/1 800/4/1
f 801/1/1 802/2/1 803/3/1 804/4/1
f 805/1/1 806/2/1 807/3/1 808/4/1
f 809/1/1 810/2/1 811/3/1 812/4/1
f 813/1/1 814/2/1 815/3/1 816/4/1
f 817/1/1 818/2/1 819/3/1 820/4/1
f 821/1/1 822/2/1 823/3/1 824/4/1
f 825/41/1 826/42/1 827/43/1 828/44/1
f 829/33/1 830/34/1 831/35/1 832/36/1
f 833/25/1 834/26/1 835/27/1 836/28/1
f 837/41/1 838/42/1 839/43/1 840/44/1
f 841/1/1 842/2/1 843/3/1 844/4/1
f 845/1/1 846/2/1 847/3/1 848/4/1
f 849/1/1 850/2/1 851/3/1 852/4/1
f 853/1/1 854/2/1 855/3/1 856/4/1
f 857/1/1 858/2/1 859/3/1 860/4/1
f 861/1/1 862/2/1 863/3/1 864/4/1
f 865/1/1 866/2/1 867/3/1 868/4/1
f 869/1/1 870/2/1 871/3/1 872/4/1
f 873/1/1 874/2/1 875/3/1 876/4/1
f 877/1/1 878/2/1 879/3/1 880/4/1
f 881/1/1 882/2/1 883/3/1 884/4/1
f 885/1/1 886/2/1 887/3/1 888/4/1
f 889/1/1 890/2/1 891/3/1 892/4/1
f 893/1/1 894/2/1 895/3/1 896/4/1
f 897/1/1 898/2/1 899/3/1 900/4/1
f 901/1/1 902/2/1 903/3/1 904/4/1
f 905/41/1 906/42/1 907/43/1 908/44/1
f 909/41/1 910/42/1 911/43/1 912/44/1
f 913/41/1 914/42/1 915/43/1 916/44/1
f 917/41/1 918/42/1 919/43/1 920/44/1
f 921/1/1 922/2/1 923/3/1 924/4/1
f 925/1/1 926/2/1 927/3/1 928/4/1
f 929/1/1 930/2/1 931/3/1 932/4/1
f 933/1/1 934/2/1 935/3/1 936/4/1
f 937/1/1 938/2/1 939/3/1 940/4/1
f 941/1/1 942/2/1 943/3/1 944/4/1
f 945/1/1 946/2/1 947/3/1 948/4/1
f 949/1/1 950/2/1 951/3/1 952/4/1
f 953/1/1 954/2/1 955/3/1 956/4/1

